<?xml version="1.0" encoding="UTF-8"?><svg id="Layer_1" xmlns="http://www.w3.org/2000/svg" viewBox="0 0 176.82 115.1"><path d="M88.28,63.35c1.59-10.28,2.69-20.63,6.04-30.59,3.93-11.66,10.03-22,17.94-31.34,.96-1.14,1.72-2.28,3.5-.5,16.2,16.18,32.51,32.26,49.4,48.97-36.7,9.36-59.26,33.61-75.77,65.2-1.85-.4-.66-2.29-1.08-3.5-1.19-2.08-1.54-4.34-1.53-6.71,.01-11.8-.03-23.6,.04-35.4,.01-2.13-.19-4.37,1.47-6.13Z" fill="#ecd491"/><path d="M88.28,63.35c.01,16.08,.02,32.16,.03,48.24-2.88-.57-4.11-2.79-5.46-5.09-12.37-21.01-28.3-38.42-50.47-49.42-6.21-3.08-12.84-5.11-20.07-6.95,15.1-15.12,29.74-29.78,44.37-44.45,6.68-6.7,6.75-6.74,12.38,1.26,11.33,16.09,17.78,33.89,18.36,53.67,.03,.99-.07,2.02,.85,2.73Z" fill="#faedca"/><path d="M106.37,95.51c12.17-13.03,26.78-22.64,43.34-28.86,17.25-6.48,11.16-6.99,24.18,5.87-7.49,1.39-14.75,2.47-21.8,4.48-15.37,4.38-29.27,11.75-42.45,20.62-1.37,.23-2.45,2.34-3.98,.95-1.21-1.09,.65-1.97,.72-3.05Z" fill="#c69a14"/><path d="M65.86,96.66c-15.11-10.01-31.2-17.83-49.04-21.63-4.5-.96-9.07-1.61-13.89-2.46,.47-.65,.75-.98,.98-1.35,5.96-9.53,13.5-9.18,22.94-4.97,14.98,6.69,28.85,14.79,40.66,26.24,.12,.49,.42,.88,.68,1.29,1.01,1.57,4.2,2.85,2.97,4.46-1.86,2.44-3.18-1.93-5.3-1.59Z" fill="#c69a14"/><path d="M42.41,88.68c1.52,.24,2.96,.68,4.07,1.83,3.45,2.12,6.89,4.28,10.9,5.22,2.67,.92,4.9,2.57,7.12,4.25,.11,.9,1.62,1.47,.72,2.55-.65,.79-1.5,.37-2.21-.07-3.4-2.11-7.5-2.47-10.96-4.42-5.93-1.41-11.73-3.32-17.74-4.46-1.99-.38-3.85-.73-5.82-.26-3.66-1.17-7.66-.04-11.25-1.68-3.63-1.36-7.39-.27-11.08-.63-1.68-.17-3.71,.69-4.75-1.5,2.38-2.52,4.57-5.26,7.18-7.52,3.92-3.39,7.94-.26,11.9,.34,7.19,2.5,14.57,4.34,21.91,6.35Z" fill="#464228"/><path d="M159.58,91.65c-3.6,1.6-7.61,.51-11.27,1.68-5.2-.74-9.93,1.38-14.83,2.43-3.36,.79-6.66,1.78-9.9,2.95-1.98,.4-4.78,2.76-5.74,.74-1.21-2.54,2.3-3.22,4.1-4.38,2.03-1.31,4.58-1.73,6.29-3.61,1.83-1.43,3.95-2.25,6.19-2.77,6.69-1.47,13.05-4.15,19.81-5.36,5.07-.91,10.14-2.55,15.19,.1,2.31,1.72,4.36,3.7,6,6.07-.89,2-2.72,1.47-4.27,1.5-3.76,.06-7.53,0-11.29,.03-.67,0-1.01,.2-.35,.15,.02,0,.05,.3,.08,.46Z" fill="#464228"/><path d="M128.23,91.45c.01,2.32-2.21,2.08-3.45,2.85-2.31,1.44-5.11,2.14-6.6,4.83,1.87,.79,3.39-1.12,5.17-.63,.58-.44,1.07-.35,1.48,.24-9.03,3.72-18.04,7.48-26.83,11.81,9.33-7.63,18.95-14.7,30.24-19.11Z" fill="#2b2a15"/><path d="M65.86,96.66c1.92-.68,2.99,1.59,4.76,1.49,.11-2.62-4.13-2.65-3.11-5.66,6.26,5.35,11.19,11.82,15.56,18.8-5.73-4.88-11.47-9.76-17.2-14.64Z" fill="#bd9b22"/><path d="M52.42,97.57c3.55,1.74,7.52,2.34,11.07,4.24,2.22,1.18,.73-1.14,1.01-1.83,5.02,2.8,9.6,6.19,13.7,10.38-8.43-4.35-17.14-7.97-25.92-11.41-.44-.51-.39-.97,.14-1.39Z" fill="#2a2914"/><path d="M169.41,83.43c-11.38-1.48-21.95,1.63-32.34,5.74-.99,.39-1.92,.47-2.66-.49,9.59-4.47,19.91-6.26,30.2-8.09,2.08-.37,3.15,1.94,4.8,2.83Z" fill="#2c2a15"/><path d="M106.37,95.51c-.5,3.17,1.58,2.32,3.26,2.1-5.27,4.59-10.55,9.17-15.82,13.76,3.41-5.93,7.42-11.34,12.55-15.86Z" fill="#bd9b21"/><path d="M52.42,97.57l-.14,1.39c-7.89-2.04-15.63-4.73-23.79-5.63,3.64-2.22,7.1,.12,10.52,.69,4.54,.75,8.94,2.33,13.4,3.56Z" fill="#26240d"/><path d="M42.41,88.68c-.57,.25-1.31,.88-1.69,.7-5.75-2.63-11.89-3.85-17.99-5.28-.92-.21-1.9-.66-2.23-1.77,7.63,.97,14.85,3.38,21.91,6.35Z" fill="#2c2a15"/><path d="M1.41,89.51c5.84,2.27,11.99,.15,18.01,1.27,.51-.23,.13,.87-.28,.59-.39-.26-1.24,.16-1.89,.27-5.16-.02-10.32-.03-15.48-.1-.64,0-1.82,.54-1.76-.77,.02-.44,.92-.84,1.41-1.26Z" fill="#272616"/><path d="M159.58,91.65c-.65-.12-1.3-.24-3.02-.56,6.88-1.54,13.1,.73,18.85-1.59,.49,.42,1.39,.83,1.4,1.27,.06,1.32-1.13,.76-1.77,.77-5.16,.08-10.31,.08-15.47,.11Z" fill="#282716"/><path d="M133.29,95.5c4.87-1.65,9.65-3.98,15.02-2.18-4.59,.76-9.19,1.51-13.78,2.27-.44,.35-.85,.32-1.24-.09Z" fill="#272510"/><path d="M57.38,95.73c-4.51,.08-7.9-2.16-10.9-5.22,3.97,1.04,7.42,3.17,10.9,5.22Z" fill="#2b2811"/><path d="M133.29,95.5c.41,.03,.82,.06,1.24,.09-3,1.78-6.37,2.42-9.71,3.15-.49-.08-.98-.16-1.48-.24,3.09-1.75,6.34-2.98,9.95-3Z" fill="#2e2d17"/></svg>